<svg height="512" width="512" xmlns="http://www.w3.org/2000/svg" viewBox="0 0 512 512">
	<path d="M0 0h512v512H0z" fill="url(#pattern)" fill-opacity="1"></path>
	<svg>
		<defs>
			<linearGradient id="a" x1="240" y1="16" x2="240" y2="496" gradientUnits="userSpaceOnUse">
				<stop offset="0" stop-color="#7d787a"></stop>
				<stop offset="1" stop-color="#423e44"></stop>
			</linearGradient>
		</defs>
		<path fill="url(#a)" fill-rule="evenodd" d="M0 0h512v512H0z"></path>
		<path d="M8 0l30.63 37.93 259.87-9.84 178.4 11.95L504 0H204.7l-10.2 8.779L159.4 0z"
			overflow="visible" fill="#fff" fill-opacity=".269" fill-rule="evenodd"></path>
		<path d="M2.809 511.6l42.841-40.7L184 468.5l27.4 26.6 10.5-23.8 250.1 7 6.7 18.3 29.3 15.7z"
			overflow="visible" fill-opacity=".24" fill-rule="evenodd"></path>
		<path
			d="M511.7 16.15l-39.1 50.39-2 324.26 10.1 19.9-7.3 53.5 20.9 9.1 18 23.8L512 215l-15.5-28.8 15.4-11.4z"
			overflow="visible" fill-opacity=".19" fill-rule="evenodd"></path>
		<path
			d="M0 15.18L35.12 61.1l-8.61 93.8 10.19 13.9-5.13 97.4-14.85 18.9 12.62 23.3 7.5 83.9v57.4L-.743 496.5z"
			overflow="visible" fill="#fff" fill-opacity=".099" fill-rule="evenodd"></path>
		<path
			d="M51.56 56.62L43.16 141l10.74 22.4-8.99 103.7-10.46 17.5 7.05 21.8 10.61 116.8 21.9 32.6 109.29.5 34.2-12.4 6.5 12.5 235.3 2.3 6.9-33.9-13.7-12.6 6.2-20.4-6-331.94-150-14.62-29.5 1.34-1.4 25.57-60.4-22.77z"
			overflow="visible" fill="#797677" fill-opacity=".434" fill-rule="evenodd"></path>
	</svg>
	<g class="" style="" transform="translate(0,0)">
		<path
			d="M405.822 78.899l24.444 24.444L100.485 433.1 76.04 408.657zM168.32 255.677a87.704 87.704 0 0 1 117.196-82.575l43.402-43.402A236.362 236.362 0 0 0 256 118.452a239.715 239.715 0 0 0-84.454 15.616 270.752 270.752 0 0 0-38.861 18.59 293.179 293.179 0 0 0-34.816 23.821 311.884 311.884 0 0 0-29.423 26.507 336.397 336.397 0 0 0-22.681 25.355l-4.46 5.554-3.93 5.267c-2.443 3.204-4.518 6.224-6.2 8.678-1.683 2.455-2.974 4.541-3.85 5.855L26 255.758l1.325 2.063c.876 1.325 2.167 3.457 3.85 5.854 1.682 2.398 3.757 5.475 6.2 8.679l3.93 5.266 4.46 5.555a336.397 336.397 0 0 0 22.68 25.355 311.895 311.895 0 0 0 29.424 26.507q7.145 5.67 14.82 11.018l60.736-60.736a87.508 87.508 0 0 1-5.106-29.642zm316.367-2.086c-.876-1.337-2.166-3.515-3.85-5.889-1.682-2.374-3.756-5.509-6.2-8.736-2.443-3.457-5.255-6.995-8.39-10.867a339.52 339.52 0 0 0-22.68-25.459 311.768 311.768 0 0 0-29.423-26.564 306.188 306.188 0 0 0-17.587-12.954l-59.375 59.375a87.692 87.692 0 0 1-114.35 114.35l-43.31 43.31A240.015 240.015 0 0 0 256 392.913a236.834 236.834 0 0 0 84.454-15.258 269.046 269.046 0 0 0 38.861-18.544 290.32 290.32 0 0 0 34.816-23.822 311.768 311.768 0 0 0 29.423-26.564 339.52 339.52 0 0 0 22.681-25.458c3.146-3.884 5.947-7.457 8.39-10.868 2.443-3.227 4.518-6.247 6.2-8.736 1.683-2.49 2.974-4.61 3.85-5.89L486 255.69z"
			fill="#ead674" fill-opacity="1"></path>
	</g>
</svg>
