<svg height="512" width="512" xmlns="http://www.w3.org/2000/svg" viewBox="0 0 512 512">
	<path d="M0 0h512v512H0z" fill="url(#pattern)" fill-opacity="1"></path>
	<svg>
		<defs>
			<linearGradient id="a" x1="240" y1="16" x2="240" y2="496" gradientUnits="userSpaceOnUse">
				<stop offset="0" stop-color="#7d787a"></stop>
				<stop offset="1" stop-color="#423e44"></stop>
			</linearGradient>
		</defs>
		<path fill="url(#a)" fill-rule="evenodd" d="M0 0h512v512H0z"></path>
		<path d="M8 0l30.63 37.93 259.87-9.84 178.4 11.95L504 0H204.7l-10.2 8.779L159.4 0z"
			overflow="visible" fill="#fff" fill-opacity=".269" fill-rule="evenodd"></path>
		<path d="M2.809 511.6l42.841-40.7L184 468.5l27.4 26.6 10.5-23.8 250.1 7 6.7 18.3 29.3 15.7z"
			overflow="visible" fill-opacity=".24" fill-rule="evenodd"></path>
		<path
			d="M511.7 16.15l-39.1 50.39-2 324.26 10.1 19.9-7.3 53.5 20.9 9.1 18 23.8L512 215l-15.5-28.8 15.4-11.4z"
			overflow="visible" fill-opacity=".19" fill-rule="evenodd"></path>
		<path
			d="M0 15.18L35.12 61.1l-8.61 93.8 10.19 13.9-5.13 97.4-14.85 18.9 12.62 23.3 7.5 83.9v57.4L-.743 496.5z"
			overflow="visible" fill="#fff" fill-opacity=".099" fill-rule="evenodd"></path>
		<path
			d="M51.56 56.62L43.16 141l10.74 22.4-8.99 103.7-10.46 17.5 7.05 21.8 10.61 116.8 21.9 32.6 109.29.5 34.2-12.4 6.5 12.5 235.3 2.3 6.9-33.9-13.7-12.6 6.2-20.4-6-331.94-150-14.62-29.5 1.34-1.4 25.57-60.4-22.77z"
			overflow="visible" fill="#797677" fill-opacity=".434" fill-rule="evenodd"></path>
	</svg>
	<g class="" style="" transform="translate(0,0)">
		<path
			d="M436.406 29.625l-18.094 42.22-48.562 5.905 42.156 25.656 1.375 13.47C367.938 90.74 302.435 75.36 214.78 82.31l-20.186-3.343-24.125-38.407.5 39.78-49.22 16.438 55.063 4.564 7.843 33.78 17.094-37.78 17.906-2.75c203.993 22.03 277.475 204.75 77.875 207.625l5.22-37.595 36.75-43.72-51.344-24.968-30.22-48.468-39.623 41.124-4.125 1.03C-8.4 163.078-31.708 304.485 98.844 376.125l-11.938 12.688L39.844 374.5l33.03 39.406-15.124 42.53 36.375-31.155 47.03 18.095-30.374-43.875 4.69-15.03c62.43 28.648 153.852 42.16 270.5 20.717-241.042 33.38-364.142-137.94-219.283-195.687l23.032 43.25-4 56.97 56.218-9.97 19.25 7.813c218.255 102.608 297.46-83.917 171.843-177.75l14.376-22.22 46.47-16.5-41.907-14.812-15.564-46.655zM34.53 79.03l4.845 26.095-19.47 22 27.22-3.25 17.563 23.344.687-29.47 24.78-17.906-33.218-1.72-22.406-19.093zm358.564 298.5l14.25 51.658-31.375 41.062 49.592-12.688 33.688 34.282-2.53-51.406 35.217-30.375-51.593 1.562-47.25-34.094z"
			fill="#ead674" fill-opacity="1"></path>
	</g>
</svg>
