<svg height="512" width="512" xmlns="http://www.w3.org/2000/svg" viewBox="0 0 512 512">
	<path d="M0 0h512v512H0z" fill="url(#pattern)" fill-opacity="1"></path>
	<svg>
		<defs>
			<linearGradient id="a" x1="240" y1="16" x2="240" y2="496" gradientUnits="userSpaceOnUse">
				<stop offset="0" stop-color="#7d787a"></stop>
				<stop offset="1" stop-color="#423e44"></stop>
			</linearGradient>
		</defs>
		<path fill="url(#a)" fill-rule="evenodd" d="M0 0h512v512H0z"></path>
		<path d="M8 0l30.63 37.93 259.87-9.84 178.4 11.95L504 0H204.7l-10.2 8.779L159.4 0z"
			overflow="visible" fill="#fff" fill-opacity=".269" fill-rule="evenodd"></path>
		<path d="M2.809 511.6l42.841-40.7L184 468.5l27.4 26.6 10.5-23.8 250.1 7 6.7 18.3 29.3 15.7z"
			overflow="visible" fill-opacity=".24" fill-rule="evenodd"></path>
		<path
			d="M511.7 16.15l-39.1 50.39-2 324.26 10.1 19.9-7.3 53.5 20.9 9.1 18 23.8L512 215l-15.5-28.8 15.4-11.4z"
			overflow="visible" fill-opacity=".19" fill-rule="evenodd"></path>
		<path
			d="M0 15.18L35.12 61.1l-8.61 93.8 10.19 13.9-5.13 97.4-14.85 18.9 12.62 23.3 7.5 83.9v57.4L-.743 496.5z"
			overflow="visible" fill="#fff" fill-opacity=".099" fill-rule="evenodd"></path>
		<path
			d="M51.56 56.62L43.16 141l10.74 22.4-8.99 103.7-10.46 17.5 7.05 21.8 10.61 116.8 21.9 32.6 109.29.5 34.2-12.4 6.5 12.5 235.3 2.3 6.9-33.9-13.7-12.6 6.2-20.4-6-331.94-150-14.62-29.5 1.34-1.4 25.57-60.4-22.77z"
			overflow="visible" fill="#797677" fill-opacity=".434" fill-rule="evenodd"></path>
	</svg>
	<g class="" style="" transform="translate(0,0)">
		<path
			d="M453.395 34.029l24.582 24.582L58.605 477.983 34.023 453.4zM212.917 243.597c-10.164-11.756-24.058-17.25-37.995-15.305q-.268 14.407-.642 28.451-.416 17.101-.748 32.951l42.335-42.335a46.754 46.754 0 0 0-2.929-3.762zM189.735 415.31c7.236 3.773 19.591-3.42 28.686-10.11l10.132 13.765c-13.167 9.694-24.507 14.514-34.276 14.514a26.517 26.517 0 0 1-12.44-3.003c-9.62-5.034-15.882-15.647-19.773-31.786l-48.33 48.299c25.864 71.523 159.463 42.816 159.463-70.647 0-65.581 98.82-69.343 122.365-155.06 6.296-22.915 8.423-43.906 6.958-63.059L176.59 384.154c3.41 21.418 8.753 28.878 13.146 31.155zM157.18 256.337c.609-25.116 1.24-51.088 1.304-77.872.064-26.207 5.43-47.903 15.946-64.48a74.58 74.58 0 0 1 39.641-31.24c40.005-13.777 91.393 3.302 110.61 27.788l-13.446 10.56c-15.038-19.153-59.243-33.304-91.595-22.167-20.991 7.214-34.768 23.887-40.71 48.8a101.16 101.16 0 0 1 21.525-15.294c22.07-11.393 44.056-10.549 63.593 2.448l-9.47 14.236c-12.387-8.24-25.843-9.694-39.983-4.275-22.22 8.454-37.408 29.563-39.01 34.415q0 16.117-.321 31.797c18.789-1.785 37.15 5.824 50.607 21.375.77.898 1.518 1.807 2.234 2.726L376.078 87.169c-14.011-18.79-32.95-34.607-55.577-47.668-54.465-31.55-211.043-12.665-211.043 108.856V353.79l46.77-46.813c.15-15.444.514-32.33.952-50.639z"
			fill="#ead674" fill-opacity="1"></path>
	</g>
</svg>
