<svg height="512" width="512" xmlns="http://www.w3.org/2000/svg" viewBox="0 0 512 512">
	<path d="M0 0h512v512H0z" fill="url(#pattern)" fill-opacity="1"></path>
	<svg>
		<defs>
			<linearGradient id="a" x1="240" y1="16" x2="240" y2="496" gradientUnits="userSpaceOnUse">
				<stop offset="0" stop-color="#7d787a"></stop>
				<stop offset="1" stop-color="#423e44"></stop>
			</linearGradient>
		</defs>
		<path fill="url(#a)" fill-rule="evenodd" d="M0 0h512v512H0z"></path>
		<path d="M8 0l30.63 37.93 259.87-9.84 178.4 11.95L504 0H204.7l-10.2 8.779L159.4 0z"
			overflow="visible" fill="#fff" fill-opacity=".269" fill-rule="evenodd"></path>
		<path d="M2.809 511.6l42.841-40.7L184 468.5l27.4 26.6 10.5-23.8 250.1 7 6.7 18.3 29.3 15.7z"
			overflow="visible" fill-opacity=".24" fill-rule="evenodd"></path>
		<path
			d="M511.7 16.15l-39.1 50.39-2 324.26 10.1 19.9-7.3 53.5 20.9 9.1 18 23.8L512 215l-15.5-28.8 15.4-11.4z"
			overflow="visible" fill-opacity=".19" fill-rule="evenodd"></path>
		<path
			d="M0 15.18L35.12 61.1l-8.61 93.8 10.19 13.9-5.13 97.4-14.85 18.9 12.62 23.3 7.5 83.9v57.4L-.743 496.5z"
			overflow="visible" fill="#fff" fill-opacity=".099" fill-rule="evenodd"></path>
		<path
			d="M51.56 56.62L43.16 141l10.74 22.4-8.99 103.7-10.46 17.5 7.05 21.8 10.61 116.8 21.9 32.6 109.29.5 34.2-12.4 6.5 12.5 235.3 2.3 6.9-33.9-13.7-12.6 6.2-20.4-6-331.94-150-14.62-29.5 1.34-1.4 25.57-60.4-22.77z"
			overflow="visible" fill="#797677" fill-opacity=".434" fill-rule="evenodd"></path>
	</svg>
	<g class="" style="" transform="translate(0,0)">
		<path
			d="M45.906 23.625v9.344c0 102.68 10.49 205.087 41.125 288.155 30.637 83.068 82.364 147.415 163.75 169.78l2.22.626 2.22-.5C344.49 472 396.864 407.39 425.593 323.47c28.728-83.92 35.25-187.777 35.25-290.5v-9.345H45.906zM64.72 42.313H442.06c-.413 98.8-7.497 197.342-34.125 275.125-27.21 79.487-73.39 136.637-154.375 154.78-73.28-21.03-119.914-78.696-149-157.562-28.475-77.212-39.206-174.13-39.843-272.344zm18.81 18.75c.807 84.13 12.486 172.823 39.314 244.812 7.825 20.998 16.874 40.495 27.25 58.063l45.844-38.438-40.75-75.063-5.47-10.062 10.97-3.344s38.865-11.786 60.406-18.25l20.437-7.25-94.843-150.468H83.53zm160.25 0l45.782 91.5 132.407-43.157c.69-16.205 1.053-32.366 1.155-48.344H243.78zm177.157 68.343L298.031 169.47l24.908 49.78 25.875 48.72 53.28-1.845c10.245-42.834 16.03-89.664 18.844-136.72zM310.908 236.47l-30.75 10.374 67.25 145.187c17.813-23.2 31.737-51.6 42.624-83.686 2.578-7.595 4.966-15.39 7.19-23.344l-53.626 1.844-5.844.22-2.75-5.158-24.094-45.437zm-99.22 4.686c-13.133 3.972-27.346 8.262-34.625 10.47L216 323.28l3.625 6.72-5.844 4.906-53.56 44.906c24.67 35.91 55.887 61.828 94.655 73.125 30.34-6.91 55.36-21.496 76.03-42.062L211.69 241.155z"
			fill="#ead674" fill-opacity="1"></path>
	</g>
</svg>
