<svg height="512" width="512" xmlns="http://www.w3.org/2000/svg" viewBox="0 0 512 512">
	<path d="M0 0h512v512H0z" fill="url(#pattern)" fill-opacity="1"></path>
	<svg>
		<defs>
			<linearGradient id="a" x1="240" y1="16" x2="240" y2="496" gradientUnits="userSpaceOnUse">
				<stop offset="0" stop-color="#7d787a"></stop>
				<stop offset="1" stop-color="#423e44"></stop>
			</linearGradient>
		</defs>
		<path fill="url(#a)" fill-rule="evenodd" d="M0 0h512v512H0z"></path>
		<path d="M8 0l30.63 37.93 259.87-9.84 178.4 11.95L504 0H204.7l-10.2 8.779L159.4 0z"
			overflow="visible" fill="#fff" fill-opacity=".269" fill-rule="evenodd"></path>
		<path d="M2.809 511.6l42.841-40.7L184 468.5l27.4 26.6 10.5-23.8 250.1 7 6.7 18.3 29.3 15.7z"
			overflow="visible" fill-opacity=".24" fill-rule="evenodd"></path>
		<path
			d="M511.7 16.15l-39.1 50.39-2 324.26 10.1 19.9-7.3 53.5 20.9 9.1 18 23.8L512 215l-15.5-28.8 15.4-11.4z"
			overflow="visible" fill-opacity=".19" fill-rule="evenodd"></path>
		<path
			d="M0 15.18L35.12 61.1l-8.61 93.8 10.19 13.9-5.13 97.4-14.85 18.9 12.62 23.3 7.5 83.9v57.4L-.743 496.5z"
			overflow="visible" fill="#fff" fill-opacity=".099" fill-rule="evenodd"></path>
		<path
			d="M51.56 56.62L43.16 141l10.74 22.4-8.99 103.7-10.46 17.5 7.05 21.8 10.61 116.8 21.9 32.6 109.29.5 34.2-12.4 6.5 12.5 235.3 2.3 6.9-33.9-13.7-12.6 6.2-20.4-6-331.94-150-14.62-29.5 1.34-1.4 25.57-60.4-22.77z"
			overflow="visible" fill="#797677" fill-opacity=".434" fill-rule="evenodd"></path>
	</svg>
	<g class="" style="" transform="translate(0,0)">
		<path
			d="M181.78 33v51.53h149.407V33H181.78zm14.19 70.22c-.66 2.9-1.554 5.263-2.75 6.936-2.684 3.75-7.033 6.594-19.5 6.594-21.54 0-40.804 5.862-55.157 16.094-14.353 10.232-23.907 25.398-23.907 42.5V426.75c0 32.34 26.255 58.625 58.594 58.625h213.47c32.338 0 58.592-26.286 58.592-58.625V175.344c0-17.102-9.527-32.2-23.593-42.438-14.067-10.237-32.83-16.156-53.44-16.156-16.69 0-23.62-3.488-26.874-7.188-1.41-1.604-2.43-3.698-3.156-6.343h-19.125c1.073 6.658 3.37 13.137 8.25 18.686 8.11 9.223 21.523 13.53 40.906 13.53 16.978 0 32.056 5.008 42.44 12.564 10.38 7.556 15.905 17.1 15.905 27.344V426.75c0 22.355-17.55 39.938-39.906 39.938H153.25c-22.355 0-39.906-17.583-39.906-39.938V175.344c0-10.245 5.455-19.72 16.062-27.28 10.607-7.563 26.22-12.626 44.313-12.626 15.962 0 28.056-5.142 34.686-14.407 3.904-5.455 5.733-11.545 6.625-17.81h-19.06zm66.093 45.405c-30.545 0-50.062 12.865-63.282 32.313-12.295 18.09-18.387 42.315-19.186 66.062 25.033 12.795 39.555 27.632 43.844 44.97.734 2.967 1.173 5.942 1.312 8.905 9.01 5.134 23.22 8.44 37.813 8.438 12.935-.002 26.08-2.538 36.093-6.875.152-3.325.617-6.662 1.47-10 4.486-17.583 19.028-33.2 44.405-45.563-.838-22.46-6.793-46.595-19-64.938-13.2-19.84-32.745-33.312-63.467-33.312zM232.188 223.5c9.157 0 16.593 7.405 16.593 16.563 0 9.157-7.435 16.593-16.593 16.593-9.157 0-16.562-7.436-16.562-16.594 0-9.157 7.405-16.562 16.563-16.562zm55.437 0c9.158 0 16.594 7.405 16.594 16.563 0 9.157-7.438 16.593-16.595 16.593-9.158 0-16.563-7.436-16.563-16.594 0-9.157 7.405-16.562 16.563-16.562zm-28.844 33.594c6.275 13.248 11.25 26.503 13.72 39.75-9.148-3.022-18.29-3.426-27.438 0 3.34-13.25 7.352-26.504 13.72-39.75zm-37.03 63.47c-2.136 6.42-5.285 12.778-9.188 19.03 11.93 7.99 31.58 12.81 50.875 12.594 18.97-.214 36.878-5.57 46.22-12.407-3.55-5.764-6.412-11.8-8.344-18-11.947 4.416-25.424 6.375-38.75 6.376-14.447.002-28.77-2.222-40.813-7.594zm-70.656 17.06c-8.9 11.268-12.694 22.493-10.03 36.313 68.925 5.54 164.194 31.92 226.686 60.75 9.16-11.166 12.518-22.67 9.97-36.78-67.77-6.867-164.135-28.736-226.626-60.282zm216.594 0c-20.79 10.496-45.326 19.907-71.313 28.063 20.298 4.434 40.253 8.04 58.72 10.688 7.782-1.026 15.357-1.853 22.624-2.438 2.66-13.82-1.133-25.045-10.033-36.312zm-203.75 57.532c-7.904 1.084-15.56 2.01-22.875 2.75-2.55 14.11.81 25.615 9.968 36.78 21.375-9.86 46.575-19.447 73.25-27.998-20.87-4.912-41.385-8.868-60.343-11.532z"
			fill="#ead674" fill-opacity="1"></path>
	</g>
</svg>
