<svg height="512" width="512" xmlns="http://www.w3.org/2000/svg" viewBox="0 0 512 512">
	<path d="M0 0h512v512H0z" fill="url(#pattern)" fill-opacity="1"></path>
	<svg>
		<defs>
			<linearGradient id="a" x1="240" y1="16" x2="240" y2="496" gradientUnits="userSpaceOnUse">
				<stop offset="0" stop-color="#7d787a"></stop>
				<stop offset="1" stop-color="#423e44"></stop>
			</linearGradient>
		</defs>
		<path fill="url(#a)" fill-rule="evenodd" d="M0 0h512v512H0z"></path>
		<path d="M8 0l30.63 37.93 259.87-9.84 178.4 11.95L504 0H204.7l-10.2 8.779L159.4 0z"
			overflow="visible" fill="#fff" fill-opacity=".269" fill-rule="evenodd"></path>
		<path d="M2.809 511.6l42.841-40.7L184 468.5l27.4 26.6 10.5-23.8 250.1 7 6.7 18.3 29.3 15.7z"
			overflow="visible" fill-opacity=".24" fill-rule="evenodd"></path>
		<path
			d="M511.7 16.15l-39.1 50.39-2 324.26 10.1 19.9-7.3 53.5 20.9 9.1 18 23.8L512 215l-15.5-28.8 15.4-11.4z"
			overflow="visible" fill-opacity=".19" fill-rule="evenodd"></path>
		<path
			d="M0 15.18L35.12 61.1l-8.61 93.8 10.19 13.9-5.13 97.4-14.85 18.9 12.62 23.3 7.5 83.9v57.4L-.743 496.5z"
			overflow="visible" fill="#fff" fill-opacity=".099" fill-rule="evenodd"></path>
		<path
			d="M51.56 56.62L43.16 141l10.74 22.4-8.99 103.7-10.46 17.5 7.05 21.8 10.61 116.8 21.9 32.6 109.29.5 34.2-12.4 6.5 12.5 235.3 2.3 6.9-33.9-13.7-12.6 6.2-20.4-6-331.94-150-14.62-29.5 1.34-1.4 25.57-60.4-22.77z"
			overflow="visible" fill="#797677" fill-opacity=".434" fill-rule="evenodd"></path>
	</svg>
	<g class="" style="" transform="translate(0,0)">
		<path
			d="M221.313 16a23.682 23.695 0 0 0-23.688 23.688v106.406a23.682 23.695 0 0 0 2.156 9.72 23.682 23.695 0 0 0 3.157 13.81l41.75 71.626-79 55.438 6.094-48.625a23.682 23.695 0 0 0-8.186-20.97l-66.28-81.937a23.682 23.695 0 0 0-33.314-3.5l-9.188 7.438a23.682 23.695 0 0 0-3.53 33.344l59.78 73.906-11.25 89.937a23.682 23.695 0 0 0 12.47 23.876l37.468 53.47a23.695 23.682 1.57 0 0 2.344 2.812 23.682 23.695 0 0 0 13.594 20.062L262 491.53a23.682 23.695 0 0 0 9.97 2.22 23.682 23.695 0 0 0 23.53-2.063l87.156-60.937a23.682 23.695 0 0 0 5.844-33l-6.78-9.688a23.682 23.695 0 0 0-32.97-5.875l-72.406 50.657-59.063-27.625 120.595-84.626a23.695 23.682 1.57 0 0 5.53-5.5 23.682 23.695 0 0 0 14.626-13.594l37.22-91.53 87.813-44.845a23.694 23.682 1.18 0 0 10.312-31.875L488 122.687a23.694 23.682 1.18 0 0-31.875-10.343l-94.688 48.375a23.694 23.682 1.18 0 0-9.843 9.436 23.682 23.695 0 0 0-8.344 10.47l-27.375 67.31-5.22-7.436a23.682 23.695 0 0 0-3-8.844l-50.81-87.094V39.688A23.682 23.695 0 0 0 233.154 16h-11.843zM77.75 376A59.994 60 0 0 0 16 436a59.994 60 0 1 0 120 0 59.994 60 0 0 0-58.25-60z"
			fill="#ead674" fill-opacity="1"></path>
	</g>
</svg>
