<svg height="512" width="512" xmlns="http://www.w3.org/2000/svg" viewBox="0 0 512 512">
	<path d="M0 0h512v512H0z" fill="url(#pattern)" fill-opacity="1"></path>
	<svg>
		<defs>
			<linearGradient id="a" x1="240" y1="16" x2="240" y2="496" gradientUnits="userSpaceOnUse">
				<stop offset="0" stop-color="#7d787a"></stop>
				<stop offset="1" stop-color="#423e44"></stop>
			</linearGradient>
		</defs>
		<path fill="url(#a)" fill-rule="evenodd" d="M0 0h512v512H0z"></path>
		<path d="M8 0l30.63 37.93 259.87-9.84 178.4 11.95L504 0H204.7l-10.2 8.779L159.4 0z"
			overflow="visible" fill="#fff" fill-opacity=".269" fill-rule="evenodd"></path>
		<path d="M2.809 511.6l42.841-40.7L184 468.5l27.4 26.6 10.5-23.8 250.1 7 6.7 18.3 29.3 15.7z"
			overflow="visible" fill-opacity=".24" fill-rule="evenodd"></path>
		<path
			d="M511.7 16.15l-39.1 50.39-2 324.26 10.1 19.9-7.3 53.5 20.9 9.1 18 23.8L512 215l-15.5-28.8 15.4-11.4z"
			overflow="visible" fill-opacity=".19" fill-rule="evenodd"></path>
		<path
			d="M0 15.18L35.12 61.1l-8.61 93.8 10.19 13.9-5.13 97.4-14.85 18.9 12.62 23.3 7.5 83.9v57.4L-.743 496.5z"
			overflow="visible" fill="#fff" fill-opacity=".099" fill-rule="evenodd"></path>
		<path
			d="M51.56 56.62L43.16 141l10.74 22.4-8.99 103.7-10.46 17.5 7.05 21.8 10.61 116.8 21.9 32.6 109.29.5 34.2-12.4 6.5 12.5 235.3 2.3 6.9-33.9-13.7-12.6 6.2-20.4-6-331.94-150-14.62-29.5 1.34-1.4 25.57-60.4-22.77z"
			overflow="visible" fill="#797677" fill-opacity=".434" fill-rule="evenodd"></path>
	</svg>
	<g class="" style="" transform="translate(0,0)">
		<path
			d="M286.744 21.547c-1.633 2.298-3.288 4.572-4.957 6.834 38.034 51.844 103.708 76.224 173.178 82.474 13.11-6.39 26.162-11.963 38.918-16.58V21.548h-207.14zm-25.69 9.433c-20.84 10.833-38.307 23.567-49.007 49.176 37.385 66.692 112.608 102.866 172.61 104.35 11.825-3.2 24.977-13.167 36.33-26.04 8.29-9.4 15.563-20.152 21.21-30.155-72.312-8.52-141.943-36.982-181.142-97.33zM19.11 97.184v29.4l151.57 99.748c57.505 36.702 117.367 36.728 154.74 23.232l1.676-.605 167.115 5.02v-25.013l-166.4-4.385c-54.14 21.71-111.908 5.425-158.16-26.836L19.11 97.184zm190.066 13.027c-18.214 18.024-37.106 35.752-56.135 53.97l27.226 18.185.076.053c43.277 30.187 94.89 44.057 142.3 24.16l.633-.266c3.48-3.647 7.04-7.246 10.682-10.787-46.328-12.848-92.928-41.553-124.78-85.314zm-100.48 97.702c-22.804 23.482-45.208 48.607-66.282 76.8 18.363 26.406 33.822 47.598 58.59 72.91l40.01-13.55 2.683 9.448c16.595 58.413 65.496 102.963 124.803 125.224 34.063 12.786 71.337 18.066 107.42 14.545 23.416-6.13 21.926-43.985 3.47-67.608-18.495-19.717-34.926-41.21-49.046-63.996-27.71 1.756-42.737 15.45-62.42 35.37l-13.293-13.134c18.315-18.535 37.307-35.014 65.46-39.748-4.49-8.127-8.69-16.395-12.592-24.785-33.757-9.66-53.897-.522-81.312 13.964l-8.73-16.524c20.48-10.82 40.906-19.966 65.56-19.836.795.004 1.594.017 2.398.04 4.2.125 8.525.523 12.992 1.224-2.924-7.38-5.63-14.837-8.092-22.362-38.586 3.26-84.892-5.22-129.69-33.81l-.054-.035-51.875-34.138z"
			fill="#ead674" fill-opacity="1"></path>
	</g>
</svg>
