<?xml version="1.0" encoding="UTF-8" standalone="no"?>
<!DOCTYPE svg PUBLIC "-//W3C//DTD SVG 1.1//EN" "http://www.w3.org/Graphics/SVG/1.1/DTD/svg11.dtd">
<svg width="100%" height="100%" viewBox="0 0 512 512" version="1.1" xmlns="http://www.w3.org/2000/svg" xmlns:xlink="http://www.w3.org/1999/xlink" xml:space="preserve" xmlns:serif="http://www.serif.com/" style="fill-rule:evenodd;clip-rule:evenodd;stroke-linejoin:round;stroke-miterlimit:2;">
    <path d="M178.9,11C89.871,78.911 135.242,151.338 144.112,167.732C145.512,162.36 128.412,213.737 177.74,250.161C169.377,237.291 145.962,207.991 155.708,183.985C159.144,209.841 180.96,221.208 190.496,225.78C191.327,234.52 195.235,245.161 204.411,252.48C204.025,246.289 203.639,240.097 203.252,233.904L216.008,243.192C214.219,244.983 222.048,257.655 221.808,175.856C211.433,177.436 199.554,176.999 188.179,175.856C228.758,165.626 237.998,141.114 240.361,136.382C247.023,122.647 256.561,126.782 269.352,103.875C274.376,105.81 273.033,108.625 284.427,109.68C276.608,112.873 275.385,111.039 276.309,136.38L289.065,124.771C273.498,151.056 257.599,196.862 294.865,243.19C293.987,243.85 301.229,238.169 307.621,233.902C307.234,240.094 306.847,246.286 306.461,252.478C308.007,251.317 317.073,246.946 320.376,225.778C322.23,225.131 344.907,215.361 356.324,183.983C357.074,215.039 345.087,232.644 333.132,250.159C336.516,247.692 375.068,220.976 366.761,167.73C370.495,162.23 424.778,82.12 334.292,12.159C338.216,12.392 447.737,43.681 411.986,160.759C416.378,155.481 427.018,148.941 438.657,106.193C440.91,110.193 499.308,216.093 380.676,264.086C388.076,264.993 402.715,269.139 443.295,250.154C437.856,265.991 390.862,335.34 349.367,347.676C348.824,346.59 364.636,353.585 392.267,338.388C390.02,340.555 346.826,376.814 305.297,376.7C305.297,378.248 306.818,388.093 319.212,399.92C316.833,399.67 302.749,396.343 292.541,387.149C292.458,390.816 307.853,416.349 326.17,434.749C323.57,434.249 298.184,426.513 277.47,408.049C276.284,408.684 273.25,420.049 283.27,432.429C273.994,450.616 257.97,482.393 255.439,486.995C252.811,482.245 228.375,434.011 227.609,432.429C228.46,431.067 238.634,419.349 233.409,408.049C231.161,409.299 223.519,420.049 184.709,434.749C190.809,428.643 204.509,419.571 218.338,387.149C216.59,387.982 208.091,395.272 191.667,399.92C191.741,398.881 204,386.296 205.582,376.7C196.925,376.2 157.364,373.216 118.611,338.388C121.13,339.649 154.063,354.48 160.357,346.515C134.198,338.653 83.57,290.428 67.588,251.315C72.383,251.568 104.136,270.815 130.207,264.086C116.966,259.768 20.207,223.586 72.227,106.193C76.169,126.767 85.727,148.929 98.898,160.759C88.208,120.308 75.682,52.069 178.9,11Z"/>
</svg>
